<?xml version="1.0" encoding="utf-8"?>
<svg width="18px" height="23px" viewBox="0 0 18 23" version="1.1" xmlns:xlink="http://www.w3.org/1999/xlink" xmlns="http://www.w3.org/2000/svg">
  <desc>Created with Lunacy</desc>
  <path d="M16.1053 8.44945L16.1053 7.04082L16.1053 6.94412C16.1053 4.47702 14.7718 2.31361 12.7738 1.08616C11.6787 0.402265 10.3874 0 9 0C7.61258 0 6.32132 0.402265 5.22616 1.08569C3.22816 2.31361 1.89474 4.47702 1.89474 6.94412L1.89474 7.04082L1.89474 8.44945L0 8.44945L0 22.5311L18 22.5311L18 8.44945L16.1053 8.44945L16.1053 8.44945ZM5.21053 7.04082C5.21053 4.97035 6.91058 3.28571 9 3.28571C11.0894 3.28571 12.7895 4.97035 12.7895 7.04082L12.7895 8.44945L5.21053 8.44945L5.21053 7.04082L5.21053 7.04082ZM10.1842 16.1028L10.1842 18.6187L7.81579 18.6187L7.81579 16.1028C7.11095 15.6959 6.63158 14.9477 6.63158 14.0816C6.63158 12.7857 7.69216 11.7352 9 11.7352C10.3078 11.7352 11.3684 12.7857 11.3684 14.0816C11.3684 14.9477 10.8891 15.6959 10.1842 16.1028L10.1842 16.1028Z" id="Shape" fill="#00A1F1" stroke="none" />
</svg>