<?xml version="1.0" encoding="utf-8"?>
<svg width="22px" height="22px" viewBox="0 0 22 22" version="1.1" xmlns:xlink="http://www.w3.org/1999/xlink" xmlns="http://www.w3.org/2000/svg">
  <desc>Created with Lunacy</desc>
  <path d="M21.5798 19.3578L16.3388 14.1164C17.3571 12.6603 17.9592 10.8918 17.9592 8.97959C17.9592 4.02016 13.939 0 8.97959 0C4.02016 0 0 4.02016 0 8.97959C0 13.939 4.02016 17.9592 8.97959 17.9592C10.8913 17.9592 12.6603 17.3571 14.1164 16.3388L19.3578 21.5802L21.5798 19.3578L21.5798 19.3578ZM3.14286 8.97959C3.14286 5.76131 5.76086 3.14286 8.97959 3.14286C12.1979 3.14286 14.8163 5.76131 14.8163 8.97959C14.8163 12.1979 12.1979 14.8163 8.97959 14.8163C5.76086 14.8163 3.14286 12.1979 3.14286 8.97959L3.14286 8.97959Z" id="Shape" fill="#00A1F1" stroke="none" />
</svg>